# 3ds Max Wavefront OBJ Exporter v0.97b - (c)2007 guruware
# File Created: 06.10.2013 14:47:57

mtllib asteroid01.mtl

#
# object Box001
#

v  -15.6836 4.8162 7.3504
v  -18.5139 2.1055 -0.0000
v  -8.3103 -1.3808 -0.0000
v  -6.9213 1.8223 11.4244
v  7.8090 -1.3808 0.0000
v  6.9213 1.8223 10.9117
v  23.9283 0.8184 -0.0000
v  20.7638 3.7109 8.8544
v  -15.6836 2.9939 -7.3504
v  -6.9213 2.1948 -17.7853
v  6.9213 2.1948 -17.2726
v  11.5862 -2.3121 -3.3367
v  11.9576 -2.2475 -8.4829
v  17.3351 -1.6640 -6.4676
v  18.0491 -2.9769 -3.3319
v  -17.2460 16.4229 8.2250
v  -6.9213 21.1730 13.4070
v  -8.3103 22.5538 -0.0000
v  -19.4449 16.9005 2.4179
v  6.9213 21.1730 12.8943
v  7.8090 22.5538 -0.0000
v  20.7638 13.6241 8.8544
v  23.9283 15.5808 -0.0000
v  -6.9213 16.7908 -11.4244
v  -14.7526 15.4276 -9.7683
v  -4.2538 26.0353 -3.7145
v  3.8439 25.8677 -3.6856
v  3.5333 24.0276 -8.9239
v  -3.7539 22.9386 -9.2668
v  20.7638 13.5963 -8.8544
v  6.9213 18.0967 -10.9117
v  -6.9213 8.3954 13.4070
v  -17.7248 8.3954 8.8444
v  -1.8881 1.9404 12.9073
v  6.1524 1.9404 12.4357
v  6.1524 5.0520 15.3850
v  -1.8881 5.0520 15.8566
v  20.7638 8.3954 10.8467
v  6.9213 8.3954 12.8943
v  25.5694 8.3954 -0.0000
v  25.7942 0.3625 -3.5405
v  22.9993 1.2969 -8.7469
v  22.9365 5.5697 -9.6807
v  26.9823 5.5437 -3.5678
v  20.7638 8.3954 -11.1106
v  20.7638 1.8886 -8.8544
v  6.9213 6.2006 -17.2726
v  -6.9213 6.2006 -17.7853
v  -14.7526 6.4724 -9.7683
v  -20.8394 6.4724 1.4353
v  10.9027 -1.6469 -2.4832
v  18.7233 -0.5221 -2.4770
v  11.3968 -0.8015 -9.3333
v  17.7005 -0.1220 -6.9712
# 54 vertices

vn -0.1757 -0.9512 0.2535
vn -0.1572 -0.9845 0.0777
vn -0.0938 -0.9949 0.0375
vn -0.0855 -0.9792 0.1841
vn 0.0231 -0.9964 0.0812
vn 0.0326 -0.9820 0.1861
vn 0.0759 -0.9737 0.2149
vn 0.0858 -0.9681 0.2354
vn -0.1904 -0.9667 -0.1708
vn -0.0477 -0.9905 -0.1289
vn 0.0015 -0.9923 -0.1242
vn 0.0248 -0.9976 -0.0650
vn 0.0499 -0.9987 -0.0028
vn -0.0161 -0.9861 -0.1652
vn -0.0452 -0.9709 -0.2354
vn -0.2139 0.9684 0.1286
vn -0.0939 0.9926 0.0764
vn -0.1766 0.9818 -0.0701
vn -0.2008 0.9794 -0.0195
vn 0.0948 0.9912 0.0924
vn 0.1285 0.9910 -0.0366
vn 0.2848 0.9220 0.2625
vn 0.2214 0.9750 -0.0190
vn -0.1958 0.9498 -0.2441
vn -0.0974 0.9875 -0.1239
vn -0.0325 0.9560 -0.2915
vn 0.0097 0.9774 -0.2113
vn -0.0094 0.9687 -0.2479
vn -0.0525 0.9429 -0.3289
vn 0.1825 0.9555 -0.2318
vn 0.1686 0.9516 -0.2569
vn -0.2319 -0.6768 0.6987
vn -0.3528 -0.4130 0.8396
vn -0.2057 -0.1528 0.9666
vn -0.3265 -0.2362 0.9152
vn 0.0236 -0.8394 0.5430
vn 0.1010 -0.4546 0.8850
vn 0.1246 -0.5655 0.8153
vn 0.1265 -0.0143 0.9919
vn 0.1117 -0.1249 0.9859
vn -0.1344 0.0161 0.9908
vn -0.3733 0.1640 0.9131
vn 0.1122 0.0000 0.9937
vn 0.1238 0.4140 0.9018
vn 0.8066 -0.3453 0.4797
vn 0.7999 -0.3819 0.4629
vn 0.9663 0.1653 0.1975
vn 0.8670 -0.0009 0.4982
vn 0.7148 -0.3255 -0.6190
vn 0.7856 -0.1850 -0.5904
vn 0.7583 -0.2447 -0.6043
vn 0.6957 -0.3570 -0.6233
vn 0.8981 0.4395 0.0150
vn 0.8495 0.2785 0.4481
vn 0.8130 0.3363 -0.4753
vn 0.8110 0.3497 -0.4690
vn 0.3186 -0.4320 -0.8438
vn 0.2237 0.0000 -0.9746
vn 0.1716 0.3220 -0.9311
vn 0.2840 0.0979 -0.9538
vn -0.3064 -0.0249 -0.9516
vn -0.2383 0.3156 -0.9185
vn -0.6136 -0.4058 -0.6774
vn -0.6231 -0.2297 -0.7476
vn 0.0941 0.6493 -0.7547
vn 0.1723 0.5689 -0.8042
vn -0.0770 0.6914 -0.7183
vn -0.4818 0.2767 -0.8315
vn -0.7877 -0.2440 -0.5656
vn -0.6633 -0.7433 -0.0871
vn -0.9646 -0.2632 -0.0152
vn -0.8496 0.0060 -0.5274
vn -0.4252 -0.8098 0.4044
vn -0.7860 -0.3430 0.5144
vn -0.9699 0.2434 -0.0032
vn -0.8870 0.0000 -0.4617
vn -0.8691 0.1785 0.4613
vn 0.0023 0.8713 0.4907
vn 0.5116 0.8227 -0.2480
vn 0.0010 0.4884 -0.8726
vn -0.5264 0.7836 -0.3299
vn 0.0015 -0.9990 0.0452
vn 0.9024 -0.2754 0.3316
vn 0.0208 0.7811 0.6241
vn -0.3006 -0.6093 0.7337
vn -0.1245 -0.9921 -0.0154
vn 0.0797 -0.4324 -0.8981
vn 0.4572 0.8310 -0.3168
vn 0.7418 -0.3606 0.5654
vn 0.0620 -0.9852 0.1600
vn -0.1351 -0.9850 -0.1077
vn 0.1343 -0.9381 -0.3193
vn 0.1864 -0.9718 -0.1447
vn 0.0093 -0.6660 0.7459
vn -0.6072 -0.7887 -0.0959
vn 0.2477 -0.5524 -0.7959
vn 0.8412 -0.4367 -0.3190
# 97 vertex normals

vt 1.6778 0.0916 0.6641
vt 1.8903 0.5000 0.5717
vt 1.1241 0.5000 0.4530
vt 1.0198 -0.1347 0.5621
vt -0.0864 0.5000 0.4530
vt -0.0198 -0.1062 0.5621
vt -1.2969 0.5000 0.5279
vt -1.0593 0.0081 0.6264
vt 1.6778 0.9084 0.6020
vt 1.0198 1.4881 0.5748
vt -0.0198 1.4596 0.5748
vt -0.3701 0.6854 0.4212
vt -0.3980 0.9713 0.4234
vt -0.8018 0.8593 0.4433
vt -0.8554 0.6851 0.3986
vt -0.7951 0.0431 1.0595
vt -0.0198 -0.2448 1.2213
vt -0.1241 0.5000 1.2683
vt -0.9603 0.3657 1.0757
vt 1.0198 -0.2164 1.2213
vt 1.0864 0.5000 1.2683
vt 2.0593 0.0081 0.9641
vt 2.2969 0.5000 1.0308
vt -0.0198 1.1347 1.0720
vt -0.6079 1.0427 1.0256
vt 0.1806 0.7064 1.3869
vt 0.7887 0.7048 1.3812
vt 0.7653 0.9958 1.3185
vt 0.2181 1.0148 1.2814
vt 2.0593 0.9919 0.9632
vt 1.0198 1.1062 1.1165
vt -0.6778 0.6641 0.0916
vt -0.0198 0.5621 -0.1347
vt -0.0198 0.7860 -0.2448
vt -0.8311 0.7860 0.0086
vt 0.6418 -0.2171 0.5661
vt 0.0380 -0.1909 0.5661
vt 0.0380 -0.3547 0.6721
vt 0.6418 -0.3809 0.6721
vt 1.0198 0.5621 -0.1062
vt 2.0593 0.6264 0.0081
vt 2.0593 0.7860 -0.1026
vt 1.0198 0.7860 -0.2164
vt -0.0198 1.2213 -0.2448
vt -0.7951 1.0595 0.0431
vt 1.0198 1.2213 -0.2164
vt 2.0593 0.9641 0.0081
vt 0.0081 0.6264 2.0593
vt 0.5000 0.5279 2.2969
vt 0.5000 0.7860 2.4202
vt -0.1026 0.7860 2.0593
vt 0.6967 0.5123 2.4371
vt 0.9859 0.5442 2.2272
vt 1.0378 0.6897 2.2225
vt 0.6982 0.6889 2.5263
vt 0.5000 1.0308 2.2969
vt 0.0081 0.9641 2.0593
vt 1.1173 0.7860 2.0593
vt 0.9919 0.9632 2.0593
vt -1.0593 0.5643 0.9919
vt -0.0198 0.5748 1.4596
vt -0.0198 0.7112 1.4596
vt -1.0593 0.7860 1.1173
vt 1.0198 0.5748 1.4881
vt 1.0198 0.7112 1.4881
vt 1.6778 0.6020 0.9084
vt 1.6079 0.7205 1.0427
vt -0.0198 1.1165 1.1062
vt -1.0593 0.9632 0.9919
vt 1.0198 1.0720 1.1347
vt 1.6079 1.0256 1.0427
vt 0.0916 0.6020 -0.6778
vt 0.5000 0.5717 -0.8903
vt 0.5797 0.7205 -1.0650
vt -0.0427 0.7205 -0.6079
vt 1.8311 0.0086 0.7860
vt 2.0650 0.4203 0.7205
vt 0.6343 1.0757 -0.9603
vt -0.0427 1.0256 -0.6079
vt 0.9914 0.7860 -0.8311
vt 0.9569 1.0595 -0.7951
vt 0.7819 1.2814 1.0148
vt 0.2347 1.3185 0.9958
vt -0.1062 0.5621 1.0198
vt -0.2164 0.7860 1.0198
vt -0.3547 0.6721 0.9620
vt -0.1909 0.5661 0.9620
vt 1.0198 -0.2164 0.7860
vt -0.0198 -0.2448 0.7860
vt 0.3582 -0.3809 0.6721
vt 0.9620 -0.3547 0.6721
vt 0.3582 0.5661 -0.2171
vt 0.3582 0.6721 -0.3809
vt -1.0593 0.9919 0.5643
vt -1.2272 0.9859 0.5442
vt -1.4371 0.6967 0.5123
vt -1.2225 0.6897 1.0378
vt -1.2272 0.5442 0.9859
vt 2.0593 1.1173 0.7860
vt 2.4202 0.5000 0.7860
vt 2.5263 0.6982 0.6889
vt 2.2225 1.0378 0.6897
vt -0.3188 0.6380 0.4439
vt -0.9061 0.6376 0.4822
vt -0.3559 1.0185 0.4727
vt -0.8293 0.8873 0.4958
vt 1.9061 0.4822 0.6376
vt 1.3188 0.4439 0.6380
vt 1.3701 0.4212 0.6854
vt 1.8554 0.3986 0.6851
vt -0.3559 0.4727 1.0185
vt -0.8293 0.4958 0.8873
vt -0.8018 0.4433 0.8593
vt -0.3980 0.4234 0.9713
vt 0.8873 0.4958 1.8293
vt 0.6376 0.4822 1.9061
vt 0.6851 0.3986 1.8554
vt 0.8593 0.4433 1.8018
# 118 texture coords

g Box001
usemtl asteroid
s 2
f 1/1/1 2/2/2 3/3/3 4/4/4 
f 4/4/4 3/3/3 5/5/5 6/6/6 
f 6/6/6 5/5/5 7/7/7 8/8/8 
f 2/2/2 9/9/9 10/10/10 3/3/3 
f 3/3/3 10/10/10 11/11/11 5/5/5 
f 12/12/12 13/13/13 14/14/14 15/15/15 
s 4
f 16/16/16 17/17/17 18/18/18 19/19/19 
f 17/17/17 20/20/20 21/21/21 18/18/18 
f 20/20/20 22/22/22 23/23/23 21/21/21 
f 19/19/19 18/18/18 24/24/24 25/25/25 
f 26/26/26 27/27/27 28/28/28 29/29/29 
f 21/21/21 23/23/23 30/30/30 31/31/31 
s 8
f 1/32/32 4/33/33 32/34/34 33/35/35 
f 34/36/36 35/37/36 36/38/36 37/39/36 
f 6/40/37 8/41/38 38/42/39 39/43/40 
f 33/35/35 32/34/34 17/44/41 16/45/42 
f 32/34/34 39/43/40 20/46/43 17/44/41 
f 39/43/40 38/42/39 22/47/44 20/46/43 
s 16
f 8/48/45 7/49/46 40/50/47 38/51/48 
f 41/52/49 42/53/50 43/54/51 44/55/52 
f 38/51/48 40/50/47 23/56/53 22/57/54 
f 40/50/47 45/58/55 30/59/56 23/56/53 
s 32
f 46/60/57 11/61/58 47/62/59 45/63/60 
f 11/61/58 10/64/61 48/65/62 47/62/59 
f 10/64/61 9/66/63 49/67/64 48/65/62 
f 45/63/60 47/62/59 31/68/65 30/69/66 
f 47/62/59 48/65/62 24/70/67 31/68/65 
f 48/65/62 49/67/64 25/71/68 24/70/67 
s 64
f 9/72/69 2/73/70 50/74/71 49/75/72 
f 2/2/70 1/1/73 33/76/74 50/77/71 
f 49/75/72 50/74/71 19/78/75 25/79/76 
f 50/74/71 33/80/74 16/81/77 19/78/75 
s off
f 18/18/78 21/21/78 27/27/78 26/26/78 
f 21/21/79 31/31/79 28/28/79 27/27/79 
f 31/68/80 24/70/80 29/82/80 28/83/80 
f 24/24/81 18/18/81 26/26/81 29/29/81 
f 4/4/82 6/6/82 35/37/82 34/36/82 
f 6/84/83 39/85/83 36/86/83 35/87/83 
f 39/88/84 32/89/84 37/90/84 36/91/84 
f 32/34/85 4/33/85 34/92/85 37/93/85 
f 7/7/86 46/94/86 42/95/86 41/96/86 
f 46/60/87 45/63/87 43/97/87 42/98/87 
f 45/99/88 40/100/88 44/101/88 43/102/88 
f 40/50/89 7/49/89 41/52/89 44/55/89 
f 7/7/90 5/5/90 51/103/90 52/104/90 
f 5/5/91 11/11/91 53/105/91 51/103/91 
f 11/11/92 46/94/92 54/106/92 53/105/92 
f 46/94/93 7/7/93 52/104/93 54/106/93 
f 52/107/94 51/108/94 12/109/94 15/110/94 
f 51/103/95 53/105/95 13/13/95 12/12/95 
f 53/111/96 54/112/96 14/113/96 13/114/96 
f 54/115/97 52/116/97 15/117/97 14/118/97 
# 52 polygons

