# 3ds Max Wavefront OBJ Exporter v0.97b - (c)2007 guruware
# File Created: 06.10.2013 17:15:05

mtllib ship-back01.mtl

#
# object ship_back
#

v  23.6760 -17.7292 7.8284
v  6.5263 -20.9452 50.8224
v  -48.8259 -15.4075 36.8728
v  -18.3819 -15.4952 6.9671
v  6.5221 -20.9404 -50.8265
v  23.6785 -17.7291 -7.8269
v  -18.3613 -15.5009 -6.9370
v  -48.8147 -15.4116 -36.9223
v  36.2622 -17.6450 -7.4919
v  17.6444 -21.8274 -50.4811
v  28.6796 -22.5437 -50.0068
v  48.8259 -17.5581 -7.1369
v  23.4206 10.4087 19.5683
v  -18.5166 -2.8939 7.0216
v  -36.9495 -5.1852 36.9614
v  6.4715 2.6922 50.8924
v  6.4393 2.7026 -50.8748
v  -36.8981 -5.2012 -37.0793
v  -18.4854 -2.8597 -7.0271
v  23.4058 10.4036 -19.5739
v  28.6517 4.5280 -50.8278
v  17.6343 3.5658 -50.9117
v  36.0304 13.2059 -19.1859
v  48.5669 16.4283 -18.7278
v  6.5329 -8.4596 51.1285
v  -43.4846 -9.9198 36.9911
v  -43.4633 -9.9419 -37.0781
v  6.5186 -8.4573 -51.1266
v  -18.7201 -8.7490 -6.8404
v  -18.7384 -8.7409 6.8917
v  29.6182 15.1654 11.4942
v  29.6182 15.1654 -11.4942
v  36.2661 -17.6468 7.5235
v  17.6528 -21.7232 50.6865
v  17.6189 3.6740 50.8087
v  36.0106 13.1942 19.2025
v  17.6936 -8.2962 51.1347
v  17.6936 -8.2962 -51.1347
v  28.7273 -8.1291 -51.1328
v  38.8735 18.8780 11.8131
v  38.9274 18.8329 -12.0053
v  48.1326 22.5437 -12.5632
v  28.7308 -21.5526 -50.1300
v  17.6952 -20.8912 -50.1333
v  36.2605 -16.6476 -7.5640
v  48.8221 -16.5646 -7.2507
v  36.2602 12.2949 -18.8435
v  17.6931 2.9387 -50.1350
v  28.7264 3.8124 -50.1333
v  48.8215 15.5964 -18.2346
v  17.6952 -20.8912 50.1333
v  36.2605 -16.6476 7.5640
v  26.8293 -16.7099 7.7993
v  9.7680 -20.4160 50.1357
v  9.7680 -20.4160 -50.1357
v  26.8293 -16.7099 -7.7993
v  17.6931 2.7562 50.1350
v  9.8683 2.0254 50.1361
v  27.4073 10.0005 19.2727
v  36.2602 12.1124 18.8435
v  27.4073 10.1830 -19.2727
v  9.8683 2.2079 -50.1361
v  17.6934 -8.2962 50.1347
v  9.6597 -8.4179 50.1361
v  17.6934 -8.2962 -50.1347
v  9.6597 -8.4179 -50.1361
v  28.7271 -8.1290 -50.1328
v  33.2551 15.3840 11.4248
v  33.2551 15.3840 -11.4248
v  39.2436 17.7898 -11.6060
v  39.2436 17.7898 11.6060
v  48.4368 21.8756 -11.8842
v  -3.3024 -19.3085 47.8125
v  13.6540 -15.9084 8.3234
v  13.6540 -15.9084 -8.3234
v  -3.3024 -19.3085 -47.8125
v  25.5595 7.5049 16.7459
v  7.5847 0.1776 47.5041
v  7.5847 0.1776 -47.5041
v  25.5595 7.5049 -16.7459
v  6.7530 -9.7670 47.3588
v  7.4419 -8.4512 48.3798
v  6.9853 -7.5263 47.6126
v  7.4419 -8.4512 -48.3798
v  6.7509 -9.7651 -47.3521
v  6.9844 -7.5260 -47.6108
v  28.7203 12.5018 -9.3453
v  28.7203 12.5018 9.3453
v  7.0369 -9.2525 -11.2346
v  7.0657 -9.4788 10.6825
v  7.0635 -7.6557 -11.7414
v  7.1301 -7.3659 11.1759
v  20.2263 -9.8814 -49.9505
v  20.4599 -7.6424 -50.2091
v  24.2963 -7.7721 -11.7409
v  24.2696 -9.3689 -11.2340
v  24.3628 -7.4823 11.1764
v  24.2985 -9.5951 10.6831
v  17.6595 -7.6426 49.5634
v  17.4271 -9.8834 49.3096
# 100 vertices

vn -0.0258 -0.9986 -0.0460
vn -0.0721 -0.9921 -0.1030
vn -0.0650 -0.9944 -0.0828
vn -0.0524 -0.9982 -0.0297
vn -0.0718 -0.9929 0.0949
vn -0.0233 -0.9985 0.0487
vn -0.0613 -0.9968 0.0509
vn -0.0797 -0.9938 0.0780
vn 0.0012 -0.9974 0.0717
vn -0.0704 -0.9911 0.1129
vn -0.0603 -0.9903 0.1249
vn 0.0037 -0.9935 0.1138
vn -0.2362 0.9678 0.0868
vn -0.2892 0.9561 -0.0471
vn -0.2502 0.9682 -0.0005
vn -0.1669 0.9745 0.1498
vn -0.1914 0.9773 -0.0904
vn -0.1708 0.9849 0.0279
vn -0.2678 0.9635 -0.0040
vn -0.2570 0.9616 -0.0963
vn -0.1054 0.9650 -0.2401
vn -0.0925 0.9729 -0.2118
vn -0.2141 0.9564 -0.1987
vn -0.2366 0.9497 -0.2053
vn -0.1313 0.0021 0.9913
vn -0.2842 0.2660 0.9211
vn -0.2665 0.1815 0.9466
vn -0.1150 -0.0269 0.9930
vn -0.1282 0.0339 0.9912
vn -0.3457 0.4823 0.8049
vn -0.2353 0.2112 -0.9487
vn -0.1452 0.0047 -0.9894
vn -0.1193 -0.0233 -0.9926
vn -0.2214 0.1894 -0.9566
vn -0.2676 0.3327 -0.9043
vn -0.1451 0.0202 -0.9892
vn -0.9343 0.0153 0.3562
vn -0.6205 0.6500 0.4387
vn -0.6513 0.5413 0.5317
vn -0.9221 -0.0544 0.3832
vn -0.5844 0.6031 -0.5429
vn -0.9518 0.0182 -0.3063
vn -0.9398 -0.0179 -0.3413
vn -0.5742 0.5715 -0.5862
vn -0.9421 0.0949 0.3215
vn -0.5614 0.7775 0.2834
vn -0.5733 0.6976 -0.4297
vn -0.9626 0.0427 -0.2674
vn -0.6086 0.7935 0.0001
vn 0.0056 -0.9992 -0.0386
vn -0.0606 -0.9930 -0.1011
vn -0.1044 0.9760 0.1910
vn -0.2082 0.9634 0.1690
vn 0.0099 -0.0334 0.9994
vn 0.0033 -0.0020 1.0000
vn 0.0051 0.0273 0.9996
vn 0.0031 0.0015 -1.0000
vn 0.0272 -0.0483 -0.9985
vn -0.0007 0.0203 -0.9998
vn 0.0055 0.0241 -0.9997
vn 0.0026 0.0213 -0.9998
vn -0.3708 0.9287 -0.0007
vn -0.3667 0.9303 -0.0026
vn -0.3681 0.9298 -0.0019
vn -0.3723 0.9281 -0.0000
vn -0.2561 0.8641 0.4333
vn -0.2571 0.8633 -0.4343
vn -0.2420 0.7501 -0.6154
vn 0.0512 0.9911 -0.1233
vn 0.0555 0.9918 -0.1151
vn -0.0017 0.9974 -0.0722
vn -0.0037 0.9935 -0.1138
vn 0.2247 -0.9124 0.3421
vn 0.0958 -0.9727 0.2116
vn 0.1009 -0.9661 0.2376
vn 0.2604 -0.8328 0.4884
vn 0.0531 0.9926 0.1095
vn -0.0056 0.9992 0.0405
vn 0.0263 0.9983 0.0519
vn 0.0622 0.9918 0.1119
vn 0.0622 0.9918 -0.1120
vn 0.0263 0.9983 -0.0518
vn 0.1052 -0.9750 -0.1958
vn 0.3689 -0.9293 -0.0165
vn 0.5076 -0.8577 -0.0824
vn 0.2360 -0.8961 -0.3760
vn 0.5107 -0.8596 0.0181
vn 0.3879 -0.9215 0.0177
vn -0.0002 0.0000 -1.0000
vn -0.0003 0.0001 -1.0000
vn -0.0002 0.0001 -1.0000
vn -0.0002 0.0000 1.0000
vn -0.0002 0.0001 1.0000
vn -0.0003 0.0001 1.0000
vn 0.4203 -0.8838 -0.2057
vn 0.4383 -0.8755 0.2036
vn 0.3192 -0.8633 0.3910
vn 0.3701 -0.9056 -0.2071
vn 0.3160 -0.6650 0.6767
vn 0.9051 -0.0975 -0.4140
vn 0.9066 -0.0447 -0.4196
vn 0.9066 -0.0454 -0.4195
vn 0.9050 -0.0982 -0.4139
vn -0.0287 0.1116 0.9933
vn -0.0254 0.0721 0.9971
vn -0.0255 0.0742 0.9969
vn -0.0288 0.1137 0.9931
vn 0.0590 0.3198 -0.9457
vn -0.0071 -0.1231 -0.9924
vn -0.0031 -0.0967 -0.9953
vn 0.0626 0.3445 -0.9367
vn 0.9377 0.0841 -0.3372
vn 0.9577 -0.1438 -0.2491
vn 0.9356 -0.1879 -0.2990
vn 0.9355 0.0851 -0.3430
vn 0.9796 -0.0013 0.2011
vn 0.9675 0.1047 0.2304
vn 0.9511 0.1336 0.2786
vn 0.9794 -0.0028 0.2021
vn 0.9612 -0.1067 0.2545
vn 0.8812 0.0540 0.4696
vn 0.8859 0.0489 0.4612
vn 0.9327 -0.1639 0.3213
vn 1.0000 0.0031 0.0018
vn 1.0000 0.0031 0.0008
vn 1.0000 -0.0036 -0.0022
vn 0.9894 0.0001 -0.1450
vn 0.9929 -0.0006 -0.1189
vn 1.0000 -0.0036 0.0002
vn 0.0151 -0.9999 0.0000
vn 1.0000 0.0001 0.0002
vn 1.0000 0.0004 -0.0036
vn 1.0000 0.0018 -0.0003
vn 1.0000 0.0016 -0.0003
vn 0.9263 0.2633 0.2696
vn 0.9570 0.2901 -0.0000
vn 0.9566 0.2913 0.0001
vn 0.9336 0.2646 0.2418
vn -0.0910 0.3574 0.9295
vn -0.2572 0.6287 0.7338
vn -0.2456 0.6107 0.7528
vn -0.0784 0.3356 0.9387
vn 0.9525 0.2467 -0.1783
vn 0.9514 0.2496 -0.1806
vn 0.8460 0.4998 0.1856
vn 0.3825 0.9180 0.1045
vn 0.3904 0.9150 -0.1018
vn 0.8458 0.5011 -0.1832
vn 0.7761 -0.6277 0.0602
vn 0.5398 -0.8336 0.1169
vn 0.5860 -0.8002 -0.1279
vn 0.7363 -0.6694 -0.0989
vn 0.2348 -0.1825 -0.9548
vn 0.6208 0.0056 -0.7840
vn 0.6684 -0.0860 -0.7388
vn 0.7605 -0.0152 -0.6492
vn 0.6656 -0.6385 0.3865
vn 0.1751 0.0016 0.9845
vn 0.7882 -0.0750 0.6109
vn 0.6209 -0.0122 0.7838
vn 0.6951 -0.7148 0.0767
vn 0.7008 -0.7126 -0.0326
vn 0.8095 0.5462 -0.2155
vn 0.7938 0.5708 0.2100
vn 1.0000 0.0000 -0.0000
vn 0.6884 -0.7254 0.0048
vn 0.6608 -0.7482 -0.0594
vn 0.9970 -0.0776 -0.0025
vn 0.9386 -0.3397 -0.0607
vn 0.6181 -0.7824 -0.0759
vn 0.6547 -0.7534 0.0620
vn 0.6121 -0.7871 0.0764
vn 0.6883 -0.7254 0.0002
vn 0.9389 -0.3391 0.0587
vn 0.9970 -0.0775 0.0036
vn 0.8444 -0.0270 -0.5350
vn 0.8449 -0.0264 0.5343
vn 0.9911 -0.0873 -0.1007
vn 0.9997 -0.0245 -0.0021
vn 0.9803 -0.0964 0.1722
vn -0.0064 -0.9999 0.0141
vn 0.0085 1.0000 0.0028
vn 0.0068 1.0000 -0.0045
vn 0.0070 1.0000 -0.0049
vn 0.0091 1.0000 0.0025
vn 0.0070 1.0000 -0.0037
vn 0.0068 1.0000 -0.0042
vn 0.0101 0.9999 0.0044
vn 0.0091 0.9999 0.0047
vn -0.0078 -0.9999 -0.0084
vn -0.0068 -0.9999 -0.0103
# 191 vertex normals

vt 0.6667 0.4214 0.0000
vt 0.6667 0.0000 0.0000
vt 1.0000 0.0000 0.0000
vt 1.0000 0.4019 0.0000
vt 0.6667 1.0000 0.0000
vt 0.6667 0.5786 0.0000
vt 1.0000 0.5981 0.0000
vt 1.0000 1.0000 0.0000
vt 0.5833 0.5791 0.0000
vt 0.5833 1.0000 0.0000
vt 0.5000 1.0000 0.0000
vt 0.5000 0.5796 0.0000
vt 0.3333 0.4214 0.0000
vt 0.0000 0.4019 0.0000
vt 0.0000 0.0000 0.0000
vt 0.3333 0.0000 0.0000
vt 0.3333 1.0000 0.0000
vt 0.0000 1.0000 0.0000
vt 0.0000 0.5981 0.0000
vt 0.3333 0.5786 0.0000
vt 0.4167 1.0000 0.0000
vt 0.4167 0.5791 0.0000
vt 0.3333 0.4660 0.0000
vt 0.0000 0.5000 0.0000
vt 1.0000 0.5000 0.0000
vt 0.6667 0.4660 0.0000
vt 0.4019 0.5000 0.0000
vt 0.4019 0.0000 0.0000
vt 0.5981 0.5000 0.0000
vt 0.5981 0.0000 0.0000
vt 0.4019 1.0000 0.0000
vt 0.5981 1.0000 0.0000
vt 0.5833 0.4209 0.0000
vt 0.5833 0.0000 0.0000
vt 0.4167 0.0000 0.0000
vt 0.4167 0.4209 0.0000
vt 0.4167 0.5000 0.0000
vt 0.5833 0.5000 0.0000
vt 0.5000 0.5000 0.0000
vt 0.6459 0.4213 0.0000
vt 0.6432 0.0000 0.0000
vt 0.6432 1.0000 0.0000
vt 0.6459 0.5787 0.0000
vt 0.3576 0.0000 0.0000
vt 0.3579 0.4213 0.0000
vt 0.3579 0.5787 0.0000
vt 0.3576 1.0000 0.0000
vt 0.3568 0.0000 0.0000
vt 0.3560 0.5000 0.0000
vt 0.6440 0.5000 0.0000
vt 0.6424 1.0000 0.0000
vt 0.3624 0.4213 0.0000
vt 0.3624 0.5787 0.0000
vt 0.3393 0.5000 0.0000
vt 0.3333 0.5575 0.0000
vt 0.6607 0.5000 0.0000
vt 0.6667 0.5575 0.0000
vt 0.5521 0.5073 0.0000
vt 0.4820 0.4922 0.0000
vt 0.5321 0.5031 0.0000
vt 0.4566 0.4969 0.0000
# 61 texture coords

g ship_back
usemtl space_suit
s 2
f 1/1/1 2/2/2 3/3/3 4/4/4 
f 5/5/5 6/6/6 7/7/7 8/8/8 
f 9/9/9 10/10/10 11/11/11 12/12/12 
s 4
f 13/13/13 14/14/14 15/15/15 16/16/16 
f 17/17/17 18/18/18 19/19/19 20/20/20 
f 21/11/21 22/21/22 23/22/23 24/12/24 
s 8
f 25/23/25 26/24/26 3/15/27 2/16/28 
f 16/17/29 15/18/30 26/24/26 25/23/25 
s 32
f 27/25/31 28/26/32 5/2/33 8/3/34 
f 18/8/35 17/5/36 28/26/32 27/25/31 
s 64
f 29/27/37 27/24/38 8/15/39 7/28/40 
f 26/25/41 30/29/42 4/30/43 3/3/44 
f 19/31/45 18/18/46 27/24/38 29/27/37 
f 15/8/47 14/32/48 30/29/42 26/25/41 
s 2
f 6/6/6 1/1/1 4/4/4 7/7/7 
s 4
f 19/19/19 14/14/14 13/13/13 20/20/20 
s 64
f 30/29/42 29/27/37 7/28/40 4/30/43 
f 14/32/48 19/31/45 29/27/37 30/29/42 
s off
f 31/13/49 32/20/49 20/20/49 13/13/49 
s 2
f 1/1/1 33/33/50 34/34/51 2/2/2 
f 10/10/10 9/9/9 6/6/6 5/5/5 
s 4
f 35/35/52 36/36/53 13/13/13 16/16/16 
f 20/20/20 23/22/23 22/21/22 17/17/17 
s 8
f 2/16/28 34/35/54 37/37/55 25/23/25 
f 37/37/55 35/21/56 16/17/29 25/23/25 
s 32
f 38/38/57 10/34/58 5/2/33 28/26/32 
f 17/5/36 22/10/59 38/38/57 28/26/32 
f 22/10/59 21/11/60 39/39/61 38/38/57 
s 2
f 9/9/9 33/33/50 1/1/1 6/6/6 
s 4
f 40/36/62 41/22/63 32/20/64 31/13/65 
s off
f 36/36/66 40/36/66 31/13/66 13/13/66 
f 32/20/67 41/22/67 23/22/67 20/20/67 
f 41/22/68 42/12/68 24/12/68 23/22/68 
s 4098
f 43/11/69 44/10/70 45/9/71 46/12/72 
s 20
f 47/22/73 48/21/74 49/11/75 50/12/76 
s 4098
f 51/34/77 52/33/78 53/40/79 54/41/80 
f 44/10/70 55/42/81 56/43/82 45/9/71 
s 20
f 57/35/83 58/44/84 59/45/85 60/36/86 
f 48/21/74 47/22/73 61/46/87 62/47/88 
s 8
f 63/37/89 51/35/90 54/48/91 64/49/89 
f 63/37/89 64/49/89 58/47/89 57/21/89 
s 32
f 65/38/92 66/50/92 55/41/93 44/34/94 
f 65/38/92 48/10/92 62/51/92 66/50/92 
f 67/39/92 49/11/92 48/10/92 65/38/92 
s 4098
f 56/43/82 53/40/79 52/33/78 45/9/71 
s 20
f 68/52/95 69/53/96 70/22/97 71/36/98 
s 16
f 60/36/86 59/45/85 68/52/95 71/36/98 
f 47/22/73 70/22/97 69/53/96 61/46/87 
f 50/12/76 72/12/99 70/22/97 47/22/73 
s 1
f 43/11/100 46/12/101 12/12/102 11/11/103 
s 4
f 46/12/104 45/9/105 9/9/106 12/12/107 
f 44/10/108 43/11/109 11/11/110 10/10/111 
s 1
f 50/12/112 49/11/113 21/11/114 24/12/115 
f 52/33/116 51/34/117 34/34/118 33/33/119 
f 57/35/120 60/36/121 36/36/122 35/35/123 
f 51/35/117 63/37/124 37/37/125 34/35/118 
f 63/37/124 57/21/120 35/21/123 37/37/125 
f 65/38/126 44/34/127 10/34/128 38/38/129 
s 2
f 67/39/130 65/38/130 38/38/130 39/39/130 
s 1
f 49/11/113 67/39/131 39/39/132 21/11/114 
f 45/9/133 52/33/116 33/33/119 9/9/134 
f 71/36/135 70/22/136 41/22/137 40/36/138 
f 60/36/121 71/36/135 40/36/138 36/36/122 
s 2
f 70/22/139 72/12/140 42/12/141 41/22/142 
s 1
f 72/12/143 50/12/112 24/12/115 42/12/144 
s 4096
f 73/2/145 54/41/80 53/40/79 74/1/146 
f 75/6/147 56/43/82 55/42/81 76/5/148 
s 16
f 77/13/149 59/45/85 58/44/84 78/16/150 
f 79/17/151 62/47/88 61/46/87 80/20/152 
s off
f 73/16/153 81/23/153 82/54/153 54/48/153 
f 54/48/154 82/54/154 64/49/154 
f 64/49/155 82/54/155 83/55/155 78/17/155 
f 64/49/156 78/17/156 58/47/156 
f 66/50/157 84/56/157 85/26/157 76/2/157 
f 66/50/158 76/2/158 55/41/158 
f 79/5/159 86/57/159 84/56/159 62/51/159 
f 62/51/160 84/56/160 66/50/160 
s 4096
f 74/1/146 53/40/79 56/43/82 75/6/147 
s 16
f 87/20/161 69/53/96 68/52/95 88/13/162 
f 88/13/162 68/52/95 59/45/85 77/13/149 
f 80/20/152 61/46/87 69/53/96 87/20/161 
s 12288
f 75/6/147 89/58/163 90/59/164 74/1/146 
s 16
f 87/20/161 88/13/162 77/13/149 80/20/152 
f 80/20/152 77/13/149 80/20/165 
s 12288
f 76/5/148 85/26/166 89/58/163 75/6/147 
s 2
f 91/60/167 86/57/168 79/5/169 80/20/170 
f 79/5/169 80/20/165 80/20/170 
f 92/61/171 91/60/167 80/20/170 77/13/172 
s 12288
f 90/59/164 81/23/173 73/16/145 74/1/146 
s 2
f 92/61/171 77/13/172 78/16/174 83/55/175 
s off
f 81/23/176 83/55/176 82/54/176 
f 85/26/177 84/56/177 86/57/177 
f 93/26/178 94/57/178 95/60/178 96/58/178 
f 96/58/179 95/60/179 97/61/179 98/59/179 
f 98/59/180 97/61/180 99/55/180 100/23/180 
f 89/58/181 85/26/181 93/26/181 96/58/181 
s 1048576
f 86/57/182 91/60/183 95/60/184 94/57/185 
f 91/60/183 92/61/186 97/61/187 95/60/184 
f 92/61/186 83/55/188 99/55/189 97/61/187 
s off
f 81/23/190 90/59/190 98/59/190 100/23/190 
f 90/59/191 89/58/191 96/58/191 98/59/191 
# 93 polygons - 8 triangles

