# 3ds Max Wavefront OBJ Exporter v0.97b - (c)2007 guruware
# File Created: 06.10.2013 16:10:23

mtllib ship-front01.mtl

#
# object Object001
#

v  81.5294 25.3172 51.0703
v  70.4981 26.1153 51.2026
v  89.1008 29.9751 7.7798
v  101.6644 30.0579 7.4688
v  173.5997 37.9359 3.7651
v  151.5386 31.8390 22.9780
v  103.8352 24.0246 51.0703
v  126.8764 30.2274 6.8575
v  151.5502 31.9134 -22.5213
v  173.6356 37.9247 -3.1740
v  126.8664 30.2272 -6.2831
v  103.8327 24.0251 -50.5098
v  88.8884 60.8366 19.4510
v  70.4959 51.0238 51.3006
v  81.5076 52.0387 51.2077
v  101.4788 64.0679 19.0081
v  165.1669 52.8359 3.5118
v  127.1818 66.5023 17.7193
v  103.8143 53.7180 51.2342
v  151.4532 54.0070 23.1662
v  151.5592 53.7933 -22.7291
v  103.8061 53.7150 -50.6761
v  127.1267 66.5517 -17.1043
v  165.1892 52.8488 -2.8939
v  81.5668 39.4914 51.4137
v  70.5331 39.3243 51.4156
v  151.6559 43.8572 23.3707
v  103.8962 39.8256 51.3749
v  167.9987 46.2411 4.0086
v  151.6157 43.8660 -22.8418
v  168.0515 46.2981 -3.4073
v  103.8963 39.8256 -50.8131
v  92.6005 39.6585 -50.8500
v  92.5645 24.6498 -50.4985
v  81.5492 25.7134 -50.7840
v  81.5668 39.4914 -50.8519
v  81.5311 51.8732 -50.7496
v  92.5498 52.8927 -50.6595
v  89.1066 29.9729 -7.2832
v  101.6641 30.0573 -6.9181
v  110.2596 72.7030 12.8753
v  110.2596 72.7030 -12.3136
v  100.9813 70.4156 -11.8633
v  100.9726 70.3763 12.5299
v  177.6407 46.1039 -2.7637
v  177.6420 46.1000 3.3274
v  181.0891 39.0558 3.2322
v  181.0901 39.0553 -2.6686
v  170.4811 51.2979 -2.7576
v  170.4948 51.3291 3.2754
v  91.7646 66.4678 12.2516
v  119.8951 75.0206 -12.5560
v  119.8951 75.0206 13.1177
v  114.1572 65.8922 -17.9537
v  101.5325 64.0789 -18.4442
v  92.5645 24.6498 51.0602
v  114.2258 30.1415 7.1473
v  114.2258 30.1415 -6.5856
v  114.1572 65.8922 18.5154
v  92.5498 52.8927 51.2213
v  92.6005 39.6585 51.4118
v  70.5349 26.7292 -50.8524
v  70.5331 39.3242 -50.8538
v  91.6922 66.5133 -11.3251
v  89.1000 30.9729 7.8449
v  70.5347 26.7293 50.4142
v  81.5702 26.0679 50.4109
v  101.6616 31.0560 7.5316
v  81.5659 51.4329 50.4142
v  70.5325 50.5592 50.4158
v  89.0997 59.9154 19.1244
v  101.6610 63.2170 18.5155
v  70.5330 39.9705 50.4155
v  81.5668 39.9705 50.4135
v  81.5665 41.9705 50.4137
v  70.5329 41.9705 50.4156
v  81.5702 26.0679 -49.8492
v  92.6058 25.4064 -49.8459
v  92.6006 39.9705 -49.8497
v  81.5668 39.9705 -49.8517
v  92.6002 41.9705 -49.8501
v  92.5992 52.3065 -49.8508
v  81.5659 51.4329 -49.8524
v  81.5665 41.9705 -49.8520
v  101.6616 31.0560 -6.9698
v  89.1000 30.9729 -7.2832
v  101.2762 69.4961 -11.6033
v  110.4694 71.8259 -11.8814
v  110.4694 71.8259 12.4432
v  101.2762 69.4961 12.1650
v  92.0831 65.5929 11.8869
v  126.7836 65.6876 17.2977
v  119.6626 74.1324 12.7214
v  119.6626 74.1324 -12.1596
v  126.7836 65.6876 -16.7359
v  101.6610 63.2170 -17.9537
v  114.2223 65.1016 -17.3448
v  114.2232 31.1390 7.2182
v  92.6058 25.4064 50.4076
v  103.6413 24.7450 50.4044
v  126.7848 31.2220 6.9048
v  103.6413 24.7450 -49.8426
v  114.2232 31.1390 -6.6564
v  126.7848 31.2220 -6.3431
v  103.6326 53.1802 50.4109
v  92.5992 52.3065 50.4126
v  114.2223 65.1016 17.9066
v  103.6326 53.1802 -49.8492
v  92.6006 39.9705 50.4115
v  103.6344 39.9705 50.4095
v  103.6339 41.9705 50.4099
v  92.6002 41.9705 50.4118
v  80.5775 40.8229 -49.8521
v  70.5329 39.3244 -49.8538
v  70.5347 26.7293 -49.8524
v  103.6344 39.9705 -49.8477
v  103.6339 41.9705 -49.8482
v  92.0831 65.5929 -11.3251
v  70.5330 40.1158 50.9347
v  81.5667 40.1421 -50.4120
v  126.7843 41.9425 11.5572
v  126.7842 41.9489 -11.7220
v  126.7843 40.0871 -11.0466
v  126.7843 40.0597 10.9094
v  81.9153 44.7782 -49.8930
v  81.9153 42.7782 -49.8925
v  94.5230 42.8948 -9.1298
v  94.5230 44.7566 -9.8052
v  103.6521 42.8673 8.5759
v  103.6521 44.7502 9.2236
v  81.9153 42.7782 50.3647
v  81.9153 44.7782 50.3652
# 132 vertices

vn -0.0620 -0.9903 -0.1241
vn -0.0731 -0.9902 -0.1193
vn 0.0001 -0.9981 -0.0609
vn 0.0029 -0.9983 -0.0589
vn 0.3563 -0.8998 0.2518
vn -0.0660 -0.9267 -0.3699
vn 0.1941 -0.7229 0.6631
vn 0.0953 -0.9946 -0.0422
vn 0.1398 -0.9840 0.1104
vn 0.1561 -0.9875 0.0240
vn 0.0850 -0.9949 0.0551
vn 0.1917 -0.7222 -0.6646
vn -0.2169 0.9526 0.2135
vn -0.0869 0.9651 0.2472
vn -0.0977 0.9597 0.2635
vn -0.1544 0.9504 0.2700
vn 0.4881 0.8341 0.2568
vn 0.3998 0.8140 0.4213
vn 0.1830 0.5388 0.8223
vn -0.0693 0.9918 -0.1075
vn 0.3772 0.8665 -0.3269
vn 0.1739 0.5361 -0.8261
vn 0.3461 0.8625 -0.3692
vn 0.3276 0.9441 -0.0376
vn 0.0021 -0.0036 1.0000
vn 0.0002 -0.0033 1.0000
vn 0.0061 -0.0208 0.9998
vn 0.0049 -0.0240 0.9997
vn 0.6573 0.0136 0.7535
vn 0.2634 -0.0040 0.9647
vn 0.6154 0.0111 0.7881
vn 0.0038 0.0134 0.9999
vn 0.0026 0.0158 0.9999
vn 0.6760 0.0271 0.7364
vn 0.6515 0.3059 0.6942
vn 0.6171 0.0169 -0.7867
vn 0.7184 0.3666 -0.5913
vn 0.6793 0.2989 -0.6702
vn 0.5794 -0.0243 -0.8147
vn 0.6482 0.0445 -0.7601
vn 0.7716 0.3773 -0.5122
vn 0.2632 -0.0047 -0.9647
vn 0.0050 -0.0027 -1.0000
vn -0.0487 -0.7688 -0.6376
vn 0.0103 -0.0108 -0.9999
vn 0.0010 0.0003 -1.0000
vn 0.0038 0.0117 -0.9999
vn -0.0498 0.5928 -0.8038
vn 0.0067 -1.0000 0.0001
vn 0.0010 -0.9988 0.0490
vn -0.2051 0.8795 0.4294
vn -0.2050 0.8793 -0.4298
vn -0.3123 0.9500 0.0008
vn -0.3160 0.9488 0.0020
vn 0.7647 0.6443 0.0003
vn 0.7656 0.6433 -0.0009
vn 0.8736 -0.4866 0.0002
vn 0.8745 -0.4850 0.0011
vn 0.4407 0.8976 -0.0045
vn 0.4384 0.8988 -0.0032
vn 0.0696 0.0190 0.9974
vn 0.0712 0.0413 0.9966
vn 0.0710 0.0773 0.9945
vn 0.0684 0.0169 0.9975
vn 0.0668 0.0356 -0.9971
vn 0.0649 0.0183 -0.9977
vn 0.0661 0.0177 -0.9977
vn 0.0644 0.0720 -0.9953
vn 0.0620 0.0989 -0.9932
vn 0.0555 0.1021 -0.9932
vn 0.0762 0.1140 0.9906
vn 0.0727 0.1076 0.9915
vn -0.2353 0.7584 0.6078
vn -0.1879 0.8087 0.5574
vn -0.1971 0.7037 0.6826
vn -0.2476 0.6844 0.6858
vn 0.2359 0.8883 -0.3940
vn 0.2354 0.8886 0.3936
vn -0.0621 0.7933 -0.6057
vn -0.1334 0.6604 -0.7390
vn -0.0974 0.2866 -0.9531
vn -0.0400 -0.7617 0.6467
vn 0.0030 -0.9978 -0.0666
vn 0.0030 -0.9978 0.0666
vn -0.0988 -0.9848 0.1428
vn -0.0617 0.7929 0.6063
vn -0.0481 0.5897 0.8062
vn -0.0852 0.9484 -0.3055
vn -0.1198 0.9477 -0.2957
vn 0.0014 -0.0044 1.0000
vn 0.0034 -0.0029 -1.0000
vn 0.0002 -0.0001 -1.0000
vn -0.3881 0.9216 0.0017
vn -0.3908 0.9205 0.0030
vn -0.0008 0.9979 0.0651
vn 0.0594 0.9904 0.1246
vn 0.0541 0.9900 0.1303
vn -0.0028 0.9980 0.0627
vn 0.0927 -0.9614 -0.2590
vn 0.0765 -0.9668 -0.2437
vn 0.2188 -0.9538 -0.2059
vn 0.1571 -0.9516 -0.2640
vn -0.0002 0.0001 -1.0000
vn -0.0003 0.0002 -1.0000
vn -0.0002 0.0000 -1.0000
vn -0.0003 0.0002 1.0000
vn -0.0003 0.0003 1.0000
vn -0.0002 0.0002 1.0000
vn -0.0002 0.0001 1.0000
vn -0.0025 0.9987 -0.0517
vn -0.0066 1.0000 -0.0000
vn 0.3179 -0.9481 -0.0000
vn 0.2445 -0.9697 -0.0000
vn 0.1956 -0.7021 -0.6846
vn 0.1855 -0.8088 -0.5580
vn 0.2334 -0.7581 -0.6089
vn 0.2448 -0.6820 -0.6892
vn -0.7645 -0.6446 -0.0000
vn -0.3776 -0.9260 -0.0000
vn 0.1269 -0.6552 0.7448
vn 0.0621 -0.5621 0.8247
vn 0.1338 -0.6117 0.7797
vn 0.2435 -0.9328 -0.2656
vn -0.0026 0.9975 0.0709
vn 0.0542 0.9875 0.1480
vn 0.0516 0.9860 0.1586
vn -0.0051 0.9983 0.0584
vn 0.0516 0.9860 -0.1586
vn 0.0542 0.9875 -0.1480
vn -0.0026 0.9975 -0.0709
vn -0.0051 0.9983 -0.0584
vn 0.0593 0.9880 -0.1427
vn 0.0686 -0.9437 -0.3238
vn 0.0800 -0.9480 -0.3079
vn 0.0615 -0.9450 -0.3212
vn 0.0276 -0.9414 -0.3363
vn 0.0615 -0.9450 0.3212
vn 0.0800 -0.9480 0.3079
vn 0.0686 -0.9437 0.3238
vn 0.0276 -0.9414 0.3363
vn 0.1218 -0.9492 0.2901
vn 0.0752 -0.9498 0.3035
vn -0.0003 0.0003 -1.0000
vn -0.0002 0.0002 -1.0000
vn -0.0002 0.0003 -1.0000
vn -0.0002 0.0003 1.0000
vn 0.3908 -0.9205 -0.0000
vn 0.0621 -0.5621 -0.8247
vn 0.1338 -0.6117 -0.7797
vn 0.0635 -0.5254 -0.8485
vn -0.0195 -0.4890 -0.8721
vn 0.0635 -0.5254 0.8485
vn -0.0195 -0.4890 0.8721
vn -0.9406 -0.2443 -0.2357
vn -0.9786 0.0125 -0.2055
vn -0.9796 0.0103 -0.2006
vn -0.9612 -0.1955 -0.1947
vn -0.8856 -0.0346 -0.4632
vn -0.9376 0.2907 -0.1906
vn -0.9557 0.2389 -0.1717
vn -0.8856 -0.0419 -0.4626
vn -1.0000 0.0017 0.0002
vn -1.0000 -0.0001 0.0001
vn -1.0000 0.0013 -0.0006
vn -1.0000 -0.0000 0.0001
vn -1.0000 -0.0019 0.0045
vn -1.0000 -0.0001 -0.0001
vn -1.0000 -0.0028 0.0078
vn -0.9549 0.2510 0.1586
vn -0.9395 0.2906 0.1813
vn -1.0000 -0.0066 -0.0000
vn -1.0000 -0.0064 -0.0000
vn 0.0289 -0.0024 -0.9996
vn -0.8186 -0.0366 -0.5731
vn -0.8450 -0.0274 -0.5341
vn 0.0291 0.0002 -0.9996
vn -0.9433 -0.2493 -0.2191
vn -0.9377 -0.2360 -0.2550
vn -0.9589 0.0105 0.2835
vn -0.9492 -0.2507 0.1903
vn -0.9548 -0.2393 0.1763
vn -0.9632 0.0120 0.2685
vn -0.3416 -0.8790 0.3328
vn -0.1901 -0.9151 0.3555
vn -1.0000 -0.0001 -0.0002
vn -1.0000 -0.0002 -0.0002
vn -0.0812 0.5967 -0.7983
vn -0.0151 0.9999 -0.0001
vn -0.0227 0.9962 -0.0842
vn -0.0831 0.5581 -0.8256
vn -0.0598 -0.9982 0.0001
vn -0.0617 -0.9979 0.0206
vn -0.9210 -0.3896 0.0020
vn -0.9205 -0.3908 0.0021
vn -0.0256 -0.0109 -0.9996
vn -0.0208 -0.0265 -0.9994
vn -0.8446 0.0867 -0.5283
vn -0.8421 0.0766 0.5339
vn -1.0000 -0.0000 0.0000
vn -0.8709 0.0940 0.4824
vn -1.0000 -0.0001 0.0000
vn -0.8732 0.0798 -0.4807
vn -0.7428 0.6401 0.1962
vn -0.9534 0.0520 0.2973
vn -0.8955 0.0033 0.4451
vn -0.8831 0.0773 -0.4629
vn 0.1018 0.9937 -0.0460
vn -0.1017 -0.9936 0.0486
vn -0.1010 -0.9946 0.0219
vn -0.1204 -0.9904 -0.0686
vn 0.1205 0.9905 0.0669
vn 0.0998 0.9948 -0.0196
vn 0.0867 0.9962 0.0003
vn 0.1049 0.9941 -0.0275
vn 0.1263 0.9902 -0.0602
# 215 vertex normals

vt 1.0000 1.0000 0.0000
vt 0.0000 1.0000 0.0000
vt 0.0000 0.0000 0.0000
vt 1.0000 0.0000 0.0000
vt 0.0765 0.0000 0.0000
vt 0.9190 0.0484 0.0000
vt 1.0000 0.8976 0.0000
vt 0.0893 1.0000 0.0000
vt 0.0000 0.0627 0.0000
vt 0.9750 0.8825 0.0000
vt 1.0000 0.9717 0.0000
vt 0.9549 1.0000 0.0000
vt 0.0083 0.0000 0.0000
vt 0.0000 0.0998 0.0000
vt 1.0000 0.9507 0.0000
vt 0.8973 1.0000 0.0000
vt 0.0342 0.1106 0.0000
vt 0.1573 0.3103 0.0000
vt 0.9188 0.9873 0.0000
vt 0.7375 0.8896 0.0000
vt 0.0278 0.0000 0.0000
vt 0.0000 0.1182 0.0000
vt 0.0503 0.0000 0.0000
vt 1.0000 0.9092 0.0000
vt 0.9496 1.0000 0.0000
vt 0.0000 0.0781 0.0000
vt 0.0268 0.2513 0.0000
# 27 texture coords

g Object001
usemtl space_suit
s 2
f 1/1/1 2/2/2 3/3/3 4/4/4 
f 5/1/5 6/2/6 7/3/7 8/4/8 
f 9/1/9 10/2/10 11/3/11 12/4/12 
s 4
f 13/1/13 14/2/14 15/3/15 16/4/16 
f 17/1/17 18/2/18 19/3/19 20/4/20 
f 21/1/21 22/2/22 23/3/23 24/4/24 
s 40
f 25/1/25 26/2/26 2/3/27 1/4/28 
f 27/1/29 28/2/30 7/3/7 6/4/31 
f 14/1/32 26/2/26 25/3/25 15/4/33 
f 20/1/34 19/2/19 28/3/30 27/4/29 
s 48
f 29/1/35 27/2/29 6/3/31 5/4/5 
s 80
f 30/1/36 31/2/37 10/3/38 9/4/39 
s 48
f 17/1/17 20/2/34 27/3/29 29/4/35 
s 80
f 21/1/40 24/2/41 31/3/37 30/4/36 
s 96
f 32/1/42 30/2/36 9/3/39 12/4/12 
f 33/1/43 34/2/44 35/3/45 36/4/46 
f 22/1/22 21/2/40 30/3/36 32/4/42 
f 37/1/47 38/2/48 33/3/43 36/4/46 
s 34
f 3/1/3 39/2/49 40/3/50 4/4/4 
f 10/1/10 5/2/5 8/3/8 11/4/11 
s 44
f 41/1/51 42/2/52 43/3/53 44/4/54 
s 36
f 23/1/23 18/2/18 17/3/17 24/4/24 
s 48
f 45/1/55 46/2/56 47/3/57 48/4/58 
f 49/1/59 50/2/60 46/3/56 45/4/55 
s 8
f 47/1/61 46/2/62 29/3/63 5/4/64 
s 32
f 48/1/58 47/2/57 5/3/5 10/4/10 
s 8
f 45/1/65 48/2/66 10/3/67 31/4/68 
f 49/1/69 45/2/65 31/3/68 24/4/70 
s 32
f 50/1/60 49/2/59 24/3/24 17/4/17 
s 8
f 46/1/62 50/2/71 17/3/72 29/4/63 
s 2
f 51/1/73 13/2/74 16/3/75 44/4/76 
s 40
f 52/1/77 53/2/78 18/3/18 23/4/23 
s 2
f 42/1/52 54/2/79 55/3/80 43/4/81 
s 130
f 7/1/7 56/2/82 57/3/83 8/4/8 
s 2
f 56/1/82 1/2/1 4/3/4 57/4/83 
s 130
f 58/1/84 34/2/44 12/3/12 11/4/11 
s 2
f 40/1/50 35/2/85 34/3/44 58/4/84 
s 132
f 59/1/86 60/2/87 19/3/19 18/4/18 
s 4
f 16/1/16 15/2/15 60/3/87 59/4/86 
s 132
f 22/1/22 38/2/48 54/3/79 23/4/23 
s 4
f 38/1/48 37/2/88 55/3/89 54/4/79 
s 168
f 28/1/30 61/2/90 56/3/82 7/4/7 
s 40
f 61/1/90 25/2/25 1/3/28 56/4/82 
s 168
f 60/1/87 61/2/90 28/3/30 19/4/19 
s 40
f 15/1/33 25/2/25 61/3/90 60/4/87 
s 96
f 36/1/46 35/2/45 62/3/91 63/4/92 
s 224
f 34/1/44 33/2/43 32/3/42 12/4/12 
f 32/1/42 33/2/43 38/3/48 22/4/22 
s 162
f 57/1/83 58/2/84 11/3/11 8/4/8 
s 34
f 4/1/4 40/2/50 58/3/84 57/4/83 
s 44
f 44/1/54 43/2/53 64/3/93 51/4/94 
s 172
f 42/1/52 41/2/51 53/3/78 52/4/77 
s 130
f 53/1/78 41/2/51 59/3/86 18/4/18 
s 2
f 41/1/51 44/2/76 16/3/75 59/4/86 
s 130
f 54/1/79 42/2/52 52/3/77 23/4/23 
s 2
f 65/1/95 66/2/96 67/3/97 68/4/98 
s 4
f 69/1/99 70/2/100 71/3/101 72/4/102 
s 8
f 66/1/103 73/2/103 74/3/103 67/4/104 
f 75/1/103 76/2/105 70/3/105 69/4/103 
s 32
f 77/1/106 78/2/107 79/3/108 80/4/108 
f 81/1/109 82/2/109 83/3/109 84/4/109 
s 2
f 85/1/110 86/2/111 65/3/95 68/4/98 
s 12
f 87/1/112 88/2/113 89/3/113 90/4/112 
s 2
f 72/1/114 71/2/115 91/3/116 90/4/117 
s 8
f 92/1/118 93/2/119 94/3/119 95/4/118 
s 2
f 96/1/120 97/2/121 88/3/122 87/4/123 
f 98/1/124 99/2/125 100/3/126 101/4/127 
f 68/1/98 67/2/97 99/3/125 98/4/124 
f 102/1/128 78/2/129 103/3/130 104/4/131 
f 78/1/129 77/2/132 85/3/110 103/4/130 
s 4
f 105/1/133 106/2/134 107/3/135 92/4/136 
f 106/1/134 69/2/99 72/3/102 107/4/135 
f 97/1/137 82/2/138 108/3/139 95/4/140 
f 96/1/141 83/2/142 82/3/138 97/4/137 
s 8
f 99/1/143 109/2/144 110/3/145 100/4/143 
f 67/1/104 74/2/103 109/3/144 99/4/143 
f 111/1/103 112/2/103 106/3/103 105/4/103 
f 112/1/103 75/2/103 69/3/103 106/4/103 
s 32
f 113/5/108 114/6/109 115/7/108 77/8/106 
f 80/9/108 113/5/108 77/8/106 
f 116/1/146 79/2/108 78/3/107 102/4/107 
f 82/1/109 81/2/109 117/3/109 108/4/109 
s 2
f 104/1/131 103/2/130 98/3/124 101/4/127 
f 103/1/130 85/2/110 68/3/98 98/4/124 
s 12
f 118/1/147 87/2/112 90/3/112 91/4/147 
f 93/1/119 89/2/113 88/3/113 94/4/119 
s 2
f 107/1/148 89/2/149 93/3/150 92/4/151 
f 72/1/114 90/2/117 89/3/149 107/4/148 
f 94/1/152 88/2/122 97/3/121 95/4/153 
s 1
f 66/1/154 65/2/155 3/3/156 2/4/157 
f 71/1/158 70/2/159 14/3/160 13/4/161 
f 26/10/162 119/11/163 73/12/164 2/13/157 
f 2/13/157 73/12/164 66/14/154 
f 26/3/162 14/15/160 70/16/159 119/17/163 
f 70/16/159 76/18/165 119/17/163 
f 36/1/166 120/19/167 84/20/168 37/21/169 
f 37/21/169 84/20/168 83/22/170 
f 65/1/155 86/2/171 39/3/172 3/4/156 
s 4
f 86/1/173 85/2/174 40/3/175 39/4/176 
s 1
f 91/1/177 71/2/158 13/3/161 51/4/178 
f 96/1/179 87/2/180 43/3/181 55/4/182 
s 5
f 85/1/174 77/2/183 35/3/184 40/4/175 
s 1
f 83/1/170 96/2/179 55/3/182 37/4/169 
f 115/1/185 114/2/185 63/3/185 62/4/186 
s 2
f 36/23/187 63/24/188 114/25/189 120/26/190 
f 114/25/189 113/27/190 120/26/190 
s 4
f 77/1/183 115/2/191 62/3/192 35/4/184 
s 1
f 118/1/193 91/2/177 51/3/178 64/4/194 
s 2
f 87/1/123 118/2/195 64/3/196 43/4/81 
s off
f 111/3/197 105/4/197 92/1/197 121/2/197 
f 108/4/198 117/1/198 122/2/198 95/3/198 
f 92/3/199 95/4/199 122/1/199 121/2/199 
f 116/3/200 102/4/200 104/1/200 123/2/200 
f 104/4/201 101/1/201 124/2/201 123/3/201 
f 110/2/202 124/3/202 101/4/202 100/1/202 
f 119/3/167 76/4/167 73/1/167 
f 120/3/203 113/4/203 80/1/203 84/2/203 
s 8
f 73/3/103 76/4/105 75/1/103 74/2/103 
s 32
f 79/3/108 81/4/109 84/1/109 80/2/108 
s 8
f 109/3/144 112/4/103 111/1/103 110/2/145 
f 74/3/103 75/4/103 112/1/103 109/2/144 
s 32
f 116/3/146 117/4/109 81/1/109 79/2/108 
s off
f 125/3/204 126/4/204 127/1/204 128/2/204 
f 128/3/205 127/4/205 129/1/205 130/2/205 
f 130/3/206 129/4/206 131/1/206 132/2/206 
f 122/3/207 117/4/207 125/1/207 128/2/207 
f 116/3/208 123/4/208 127/1/208 126/2/208 
f 123/3/209 124/4/209 129/1/209 127/2/209 
f 124/3/210 110/4/210 131/1/210 129/2/210 
f 111/3/211 121/4/211 130/1/211 132/2/211 
s 32
f 121/3/212 122/4/213 128/1/214 130/2/215 
# 125 polygons - 6 triangles

